<svg id="visual" viewBox="0 0 960 540" width="960" height="540" xmlns="http://www.w3.org/2000/svg" xmlns:xlink="http://www.w3.org/1999/xlink" version="1.1"><rect x="0" y="0" width="960" height="540" fill="#001220"></rect><path d="M0 275L17.8 260.3C35.7 245.7 71.3 216.3 106.8 220C142.3 223.7 177.7 260.3 213.2 259.3C248.7 258.3 284.3 219.7 320 201.8C355.7 184 391.3 187 426.8 200.5C462.3 214 497.7 238 533.2 237.5C568.7 237 604.3 212 640 209.7C675.7 207.3 711.3 227.7 746.8 245C782.3 262.3 817.7 276.7 853.2 274.2C888.7 271.7 924.3 252.3 942.2 242.7L960 233L960 541L942.2 541C924.3 541 888.7 541 853.2 541C817.7 541 782.3 541 746.8 541C711.3 541 675.7 541 640 541C604.3 541 568.7 541 533.2 541C497.7 541 462.3 541 426.8 541C391.3 541 355.7 541 320 541C284.3 541 248.7 541 213.2 541C177.7 541 142.3 541 106.8 541C71.3 541 35.7 541 17.8 541L0 541Z" fill="#fcae3c"></path><path d="M0 304L17.8 296C35.7 288 71.3 272 106.8 271.2C142.3 270.3 177.7 284.7 213.2 299.3C248.7 314 284.3 329 320 323.5C355.7 318 391.3 292 426.8 276.8C462.3 261.7 497.7 257.3 533.2 255.5C568.7 253.7 604.3 254.3 640 263.2C675.7 272 711.3 289 746.8 289.2C782.3 289.3 817.7 272.7 853.2 270.2C888.7 267.7 924.3 279.3 942.2 285.2L960 291L960 541L942.2 541C924.3 541 888.7 541 853.2 541C817.7 541 782.3 541 746.8 541C711.3 541 675.7 541 640 541C604.3 541 568.7 541 533.2 541C497.7 541 462.3 541 426.8 541C391.3 541 355.7 541 320 541C284.3 541 248.7 541 213.2 541C177.7 541 142.3 541 106.8 541C71.3 541 35.7 541 17.8 541L0 541Z" fill="#f88f4a"></path><path d="M0 319L17.8 313.3C35.7 307.7 71.3 296.3 106.8 297.2C142.3 298 177.7 311 213.2 317.2C248.7 323.3 284.3 322.7 320 328.3C355.7 334 391.3 346 426.8 341.7C462.3 337.3 497.7 316.7 533.2 309.8C568.7 303 604.3 310 640 309.7C675.7 309.3 711.3 301.7 746.8 313.5C782.3 325.3 817.7 356.7 853.2 362.8C888.7 369 924.3 350 942.2 340.5L960 331L960 541L942.2 541C924.3 541 888.7 541 853.2 541C817.7 541 782.3 541 746.8 541C711.3 541 675.7 541 640 541C604.3 541 568.7 541 533.2 541C497.7 541 462.3 541 426.8 541C391.3 541 355.7 541 320 541C284.3 541 248.7 541 213.2 541C177.7 541 142.3 541 106.8 541C71.3 541 35.7 541 17.8 541L0 541Z" fill="#eb7458"></path><path d="M0 409L17.8 412.5C35.7 416 71.3 423 106.8 426.7C142.3 430.3 177.7 430.7 213.2 423.8C248.7 417 284.3 403 320 388.3C355.7 373.7 391.3 358.3 426.8 350.7C462.3 343 497.7 343 533.2 354.5C568.7 366 604.3 389 640 397.7C675.7 406.3 711.3 400.7 746.8 398.5C782.3 396.3 817.7 397.7 853.2 390.3C888.7 383 924.3 367 942.2 359L960 351L960 541L942.2 541C924.3 541 888.7 541 853.2 541C817.7 541 782.3 541 746.8 541C711.3 541 675.7 541 640 541C604.3 541 568.7 541 533.2 541C497.7 541 462.3 541 426.8 541C391.3 541 355.7 541 320 541C284.3 541 248.7 541 213.2 541C177.7 541 142.3 541 106.8 541C71.3 541 35.7 541 17.8 541L0 541Z" fill="#d55e63"></path><path d="M0 467L17.8 465.8C35.7 464.7 71.3 462.3 106.8 457.8C142.3 453.3 177.7 446.7 213.2 447.3C248.7 448 284.3 456 320 458.3C355.7 460.7 391.3 457.3 426.8 448C462.3 438.7 497.7 423.3 533.2 421C568.7 418.7 604.3 429.3 640 434.7C675.7 440 711.3 440 746.8 434C782.3 428 817.7 416 853.2 419.3C888.7 422.7 924.3 441.3 942.2 450.7L960 460L960 541L942.2 541C924.3 541 888.7 541 853.2 541C817.7 541 782.3 541 746.8 541C711.3 541 675.7 541 640 541C604.3 541 568.7 541 533.2 541C497.7 541 462.3 541 426.8 541C391.3 541 355.7 541 320 541C284.3 541 248.7 541 213.2 541C177.7 541 142.3 541 106.8 541C71.3 541 35.7 541 17.8 541L0 541Z" fill="#b84e6b"></path><path d="M0 448L17.8 452.5C35.7 457 71.3 466 106.8 469C142.3 472 177.7 469 213.2 468.3C248.7 467.7 284.3 469.3 320 470.2C355.7 471 391.3 471 426.8 468.3C462.3 465.7 497.7 460.3 533.2 460.8C568.7 461.3 604.3 467.7 640 469.7C675.7 471.7 711.3 469.3 746.8 465.7C782.3 462 817.7 457 853.2 461.7C888.7 466.3 924.3 480.7 942.2 487.8L960 495L960 541L942.2 541C924.3 541 888.7 541 853.2 541C817.7 541 782.3 541 746.8 541C711.3 541 675.7 541 640 541C604.3 541 568.7 541 533.2 541C497.7 541 462.3 541 426.8 541C391.3 541 355.7 541 320 541C284.3 541 248.7 541 213.2 541C177.7 541 142.3 541 106.8 541C71.3 541 35.7 541 17.8 541L0 541Z" fill="#96446d"></path></svg>