<svg id="visual" viewBox="0 0 960 540" width="960" height="540" xmlns="http://www.w3.org/2000/svg" xmlns:xlink="http://www.w3.org/1999/xlink" version="1.1"><rect x="0" y="0" width="960" height="540" fill="#001220"></rect><defs><linearGradient id="grad1_0" x1="43.8%" y1="0%" x2="100%" y2="100%"><stop offset="14.444444444444446%" stop-color="#fbae3c" stop-opacity="1"></stop><stop offset="85.55555555555554%" stop-color="#fbae3c" stop-opacity="1"></stop></linearGradient></defs><defs><linearGradient id="grad1_1" x1="43.8%" y1="0%" x2="100%" y2="100%"><stop offset="14.444444444444446%" stop-color="#fbae3c" stop-opacity="1"></stop><stop offset="85.55555555555554%" stop-color="#001220" stop-opacity="1"></stop></linearGradient></defs><defs><linearGradient id="grad2_0" x1="0%" y1="0%" x2="56.3%" y2="100%"><stop offset="14.444444444444446%" stop-color="#fbae3c" stop-opacity="1"></stop><stop offset="85.55555555555554%" stop-color="#fbae3c" stop-opacity="1"></stop></linearGradient></defs><defs><linearGradient id="grad2_1" x1="0%" y1="0%" x2="56.3%" y2="100%"><stop offset="14.444444444444446%" stop-color="#001220" stop-opacity="1"></stop><stop offset="85.55555555555554%" stop-color="#fbae3c" stop-opacity="1"></stop></linearGradient></defs><g transform="translate(960, 0)"><path d="M0 459C-75.1 438.8 -150.1 418.5 -221 382.8C-291.9 347.1 -358.5 295.9 -397.5 229.5C-436.5 163.1 -447.7 81.6 -459 0L0 0Z" fill="#96446e"></path><path d="M0 229.5C-37.5 219.4 -75.1 209.3 -110.5 191.4C-145.9 173.5 -179.3 147.9 -198.8 114.8C-218.2 81.6 -223.9 40.8 -229.5 0L0 0Z" fill="#fbae3c"></path></g><g transform="translate(0, 540)"><path d="M0 -459C91.1 -453.3 182.3 -447.5 229.5 -397.5C276.7 -347.5 280 -253.1 310.9 -179.5C341.8 -105.9 400.4 -52.9 459 0L0 0Z" fill="#96446e"></path><path d="M0 -229.5C45.6 -226.6 91.1 -223.8 114.7 -198.8C138.4 -173.7 140 -126.6 155.5 -89.8C170.9 -52.9 200.2 -26.5 229.5 0L0 0Z" fill="#fbae3c"></path></g></svg>
