<svg id="visual" viewBox="0 0 960 540" width="960" height="540" xmlns="http://www.w3.org/2000/svg" xmlns:xlink="http://www.w3.org/1999/xlink" version="1.1"><rect x="0" y="0" width="960" height="540" fill="#001220"></rect><path d="M0 248L137 218L274 214L411 180L549 214L686 282L823 296L960 191L960 541L823 541L686 541L549 541L411 541L274 541L137 541L0 541Z" fill="#fcae3c"></path><path d="M0 326L137 316L274 274L411 292L549 324L686 257L823 250L960 276L960 541L823 541L686 541L549 541L411 541L274 541L137 541L0 541Z" fill="#f6884d"></path><path d="M0 355L137 337L274 412L411 315L549 307L686 407L823 381L960 382L960 541L823 541L686 541L549 541L411 541L274 541L137 541L0 541Z" fill="#e2685e"></path><path d="M0 444L137 390L274 382L411 397L549 438L686 382L823 374L960 427L960 541L823 541L686 541L549 541L411 541L274 541L137 541L0 541Z" fill="#c0526a"></path><path d="M0 441L137 449L274 448L411 459L549 483L686 432L823 442L960 468L960 541L823 541L686 541L549 541L411 541L274 541L137 541L0 541Z" fill="#96446e"></path></svg>