<svg id="visual" viewBox="0 0 960 540" width="960" height="540" xmlns="http://www.w3.org/2000/svg" xmlns:xlink="http://www.w3.org/1999/xlink" version="1.1"><rect x="0" y="0" width="960" height="540" fill="#001220"></rect><path d="M0 391L8.5 394.7C17 398.3 34 405.7 50.8 406.5C67.7 407.3 84.3 401.7 101.2 399C118 396.3 135 396.7 151.8 383.5C168.7 370.3 185.3 343.7 202.2 318.8C219 294 236 271 252.8 271.2C269.7 271.3 286.3 294.7 303.2 301.8C320 309 337 300 353.8 305.2C370.7 310.3 387.3 329.7 404.2 350.3C421 371 438 393 454.8 393.3C471.7 393.7 488.3 372.3 505.2 385.2C522 398 539 445 555.8 451C572.7 457 589.3 422 606.2 418.8C623 415.7 640 444.3 656.8 454.8C673.7 465.3 690.3 457.7 707.2 450C724 442.3 741 434.7 757.8 406.8C774.7 379 791.3 331 808.2 320.8C825 310.7 842 338.3 858.8 341C875.7 343.7 892.3 321.3 909.2 302.3C926 283.3 943 267.7 951.5 259.8L960 252L960 541L951.5 541C943 541 926 541 909.2 541C892.3 541 875.7 541 858.8 541C842 541 825 541 808.2 541C791.3 541 774.7 541 757.8 541C741 541 724 541 707.2 541C690.3 541 673.7 541 656.8 541C640 541 623 541 606.2 541C589.3 541 572.7 541 555.8 541C539 541 522 541 505.2 541C488.3 541 471.7 541 454.8 541C438 541 421 541 404.2 541C387.3 541 370.7 541 353.8 541C337 541 320 541 303.2 541C286.3 541 269.7 541 252.8 541C236 541 219 541 202.2 541C185.3 541 168.7 541 151.8 541C135 541 118 541 101.2 541C84.3 541 67.7 541 50.8 541C34 541 17 541 8.5 541L0 541Z" fill="#fbae3c" stroke-linecap="round" stroke-linejoin="miter"></path></svg>